# Blender 5.1.1
# www.blender.org
mtllib chair.mtl
o Cube
v -0.875000 0.750000 2.000000
v -0.875000 1.000000 2.000000
v 0.875000 0.750000 2.000000
v 0.875000 1.000000 2.000000
v -0.750000 0.625000 1.750000
v -0.750000 0.750000 1.750000
v -0.750000 0.625000 -0.750000
v -0.750000 0.750000 -0.750000
v 0.750000 0.625000 1.750000
v 0.750000 0.750000 1.750000
v 0.750000 0.625000 -0.750000
v 0.750000 0.750000 -0.750000
v 0.747813 -1.250000 -0.650000
v 0.747813 0.750000 -0.650000
v 0.747813 -1.250000 -0.900000
v 0.747813 0.750000 -0.900000
v 0.982188 -1.250000 -0.650000
v 0.982188 0.750000 -0.650000
v 0.982188 -1.250000 -0.900000
v 0.982188 0.750000 -0.900000
v -0.982188 -1.250000 -0.650000
v -0.982188 0.750000 -0.650000
v -0.982188 -1.250000 -0.900000
v -0.982188 0.750000 -0.900000
v -0.747813 -1.250000 -0.650000
v -0.747813 0.750000 -0.650000
v -0.747813 -1.250000 -0.900000
v -0.747813 0.750000 -0.900000
v 0.632812 -1.250000 2.025000
v 0.632812 0.750000 1.900000
v 0.632812 -1.250000 1.775000
v 0.632812 0.750000 1.650000
v 0.867188 -1.250000 2.025000
v 0.867188 0.750000 1.900000
v 0.867188 -1.250000 1.775000
v 0.867188 0.750000 1.650000
v -0.867188 -1.250000 2.025000
v -0.867188 0.750000 1.900000
v -0.867188 -1.250000 1.775000
v -0.867188 0.750000 1.650000
v -0.632812 -1.250000 2.025000
v -0.632812 0.750000 1.900000
v -0.632812 -1.250000 1.775000
v -0.632812 0.750000 1.650000
v 0.632812 1.000000 1.900000
v 0.757812 4.000000 2.150000
v 0.632812 1.000000 1.650000
v 0.757812 4.000000 1.900000
v 0.867188 1.000000 1.900000
v 0.992188 4.000000 2.150000
v 0.867188 1.000000 1.650000
v 0.992188 4.000000 1.900000
v -0.867188 1.000000 1.900000
v -0.992188 4.000000 2.150000
v -0.867188 1.000000 1.650000
v -0.992188 4.000000 1.900000
v -0.632812 1.000000 1.900000
v -0.757812 4.000000 2.150000
v -0.632812 1.000000 1.650000
v -0.757812 4.000000 1.900000
v -0.770416 3.400000 2.066250
v -0.785522 3.850000 2.113750
v -0.770416 3.400000 1.878750
v -0.785522 3.850000 1.926250
v 0.770416 3.400000 2.066250
v 0.785522 3.850000 2.113750
v 0.770416 3.400000 1.878750
v 0.785522 3.850000 1.926250
v -0.693375 2.040625 1.951250
v -0.706970 2.209375 1.973750
v -0.693375 2.040625 1.763750
v -0.706970 2.209375 1.786250
v 0.693375 2.040625 1.951250
v 0.706970 2.209375 1.973750
v 0.693375 2.040625 1.763750
v 0.706970 2.209375 1.786250
v -0.058594 2.200000 1.941250
v -0.058594 3.410000 2.033750
v -0.058594 2.200000 1.816250
v -0.058594 3.410000 1.908750
v 0.058594 2.200000 1.941250
v 0.058594 3.410000 2.033750
v 0.058594 2.200000 1.816250
v 0.058594 3.410000 1.908750
v 0.266406 2.200000 1.941250
v 0.316406 3.410000 2.033750
v 0.266406 2.200000 1.816250
v 0.316406 3.410000 1.908750
v 0.383594 2.200000 1.941250
v 0.433594 3.410000 2.033750
v 0.383594 2.200000 1.816250
v 0.433594 3.410000 1.908750
v -0.383594 2.200000 1.941250
v -0.433594 3.410000 2.033750
v -0.383594 2.200000 1.816250
v -0.433594 3.410000 1.908750
v -0.266406 2.200000 1.941250
v -0.316406 3.410000 2.033750
v -0.266406 2.200000 1.816250
v -0.316406 3.410000 1.908750
v 0.950000 0.750000 -1.000000
v 1.045837 0.750000 -0.900087
v 0.969429 0.750000 -0.998080
v 0.987951 0.750000 -0.992395
v 1.004855 0.750000 -0.983162
v 1.019491 0.750000 -0.970736
v 1.031297 0.750000 -0.955595
v 1.039818 0.750000 -0.938322
v 1.044728 0.750000 -0.919579
v 1.045837 1.000000 -0.900087
v 0.950000 1.000000 -1.000000
v 1.044728 1.000000 -0.919579
v 1.039818 1.000000 -0.938322
v 1.031297 1.000000 -0.955595
v 1.019491 1.000000 -0.970736
v 1.004855 1.000000 -0.983162
v 0.987951 1.000000 -0.992395
v 0.969429 1.000000 -0.998080
v -1.045837 0.750000 -0.900087
v -0.950000 0.750000 -1.000000
v -1.044728 0.750000 -0.919579
v -1.039818 0.750000 -0.938322
v -1.031297 0.750000 -0.955595
v -1.019491 0.750000 -0.970736
v -1.004855 0.750000 -0.983162
v -0.987951 0.750000 -0.992395
v -0.969429 0.750000 -0.998080
v -0.950000 1.000000 -1.000000
v -1.045837 1.000000 -0.900087
v -0.969429 1.000000 -0.998080
v -0.987951 1.000000 -0.992395
v -1.004855 1.000000 -0.983162
v -1.019491 1.000000 -0.970736
v -1.031297 1.000000 -0.955595
v -1.039818 1.000000 -0.938322
v -1.044728 1.000000 -0.919579
v -0.982188 -1.250000 -0.650000
v -0.982188 0.750000 -0.650000
v -0.982188 -1.250000 -0.900000
v -0.982188 0.750000 -0.900000
v -0.747813 -1.250000 -0.650000
v -0.747813 0.750000 -0.650000
v -0.747813 -1.250000 -0.900000
v -0.747813 0.750000 -0.900000
v 0.676484 -0.843750 1.757500
v 0.676484 -0.656250 1.737500
v 0.762734 -0.843750 -0.650000
v 0.762734 -0.656250 -0.650000
v 0.852266 -0.843750 1.757500
v 0.852266 -0.656250 1.737500
v 0.938516 -0.843750 -0.650000
v 0.938516 -0.656250 -0.650000
v -0.852266 -0.843750 1.757500
v -0.852266 -0.656250 1.737500
v -0.938516 -0.843750 -0.650000
v -0.938516 -0.656250 -0.650000
v -0.676484 -0.843750 1.757500
v -0.676484 -0.656250 1.737500
v -0.762734 -0.843750 -0.650000
v -0.762734 -0.656250 -0.650000
vn -0.0000 -0.0000 -1.0000
vn 0.9983 -0.0000 0.0588
vn -0.0000 -0.0000 1.0000
vn -0.0000 1.0000 -0.0000
vn -1.0000 -0.0000 -0.0000
vn 1.0000 -0.0000 -0.0000
vn -0.0000 -1.0000 -0.0000
vn -0.0000 -0.0624 -0.9981
vn -0.0000 0.0624 0.9981
vn -0.9991 0.0416 -0.0000
vn -0.0000 0.0830 -0.9965
vn 0.9991 -0.0416 -0.0000
vn -0.0000 -0.0830 0.9965
vn -0.9991 -0.0416 -0.0000
vn 0.9991 0.0416 -0.0000
vn -0.0000 0.1050 -0.9945
vn -0.0000 -0.1050 0.9945
vn -0.0000 0.1322 -0.9912
vn -0.0000 -0.1322 0.9912
vn -0.0000 0.0762 -0.9971
vn -0.0000 -0.0762 0.9971
vn -0.9991 0.0413 -0.0000
vn 0.9991 -0.0413 -0.0000
vn -0.9991 -0.0413 -0.0000
vn 0.9991 0.0413 -0.0000
vn 0.9984 -0.0000 -0.0568
vn 0.9674 -0.0000 -0.2534
vn 0.8968 -0.0000 -0.4424
vn 0.7886 -0.0000 -0.6149
vn 0.6472 -0.0000 -0.7623
vn 0.4794 -0.0000 -0.8776
vn 0.2934 -0.0000 -0.9560
vn 0.0983 -0.0000 -0.9952
vn -0.9983 -0.0000 0.0588
vn -0.0983 -0.0000 -0.9952
vn -0.2934 -0.0000 -0.9560
vn -0.4794 -0.0000 -0.8776
vn -0.6472 -0.0000 -0.7623
vn -0.7886 -0.0000 -0.6149
vn -0.8968 -0.0000 -0.4424
vn -0.9674 -0.0000 -0.2534
vn -0.9984 -0.0000 -0.0568
vn -0.9994 -0.0019 -0.0360
vn 0.9994 0.0019 0.0360
vn -0.9994 0.0019 0.0360
vn 0.9994 -0.0019 -0.0360
vt 0.900561 0.988857
vt 0.849778 0.988857
vt 0.849778 0.602903
vt 0.900561 0.602903
vt 0.900561 0.573679
vt 0.849778 0.573679
vt 0.849778 0.000000
vt 0.900561 0.000000
vt 0.951345 0.947244
vt 0.900561 0.947244
vt 0.900561 0.591760
vt 0.951345 0.591760
vt 0.424889 0.589105
vt 0.424664 0.593064
vt 0.423666 0.596872
vt 0.421935 0.600380
vt 0.419537 0.603456
vt 0.416564 0.605980
vt 0.413131 0.607856
vt 0.409368 0.609011
vt 0.405421 0.609401
vt 0.019468 0.609401
vt 0.015521 0.609011
vt 0.011758 0.607856
vt 0.008325 0.605980
vt 0.005352 0.603456
vt 0.002954 0.600380
vt 0.001223 0.596872
vt 0.000225 0.593064
vt 0.000000 0.589105
vt 0.034703 0.000000
vt 0.390186 0.000000
vt 0.145833 0.987654
vt 0.125000 0.987654
vt 0.125000 -0.000000
vt 0.145833 -0.000000
vt 0.854167 0.592593
vt 0.833333 0.592593
vt 0.833333 0.000000
vt 0.854167 0.000000
vt 0.166667 0.987654
vt 0.166667 0.000000
vt 0.875000 0.592593
vt 0.875000 0.000000
vt 0.500000 0.740741
vt 0.166667 0.740741
vt 0.500000 0.000000
vt 0.125000 1.000000
vt 0.218750 0.000000
vt 0.218750 1.000000
vt 0.312500 1.000000
vt 0.312500 0.000000
vt 0.400391 0.000000
vt 0.400391 1.000000
vt 0.488281 0.000000
vt 0.488281 1.000000
vt 0.558594 -0.000000
vt 0.558594 0.156250
vt 0.488281 0.156250
vt 0.558594 0.312500
vt 0.488281 0.312500
vt 0.125000 0.013605
vt 0.216837 -0.000000
vt 0.216837 0.986395
vt 0.308674 0.984905
vt 0.308674 -0.000000
vt 0.395069 -0.000000
vt 0.395069 0.984905
vt 0.308674 0.013605
vt 0.308674 1.000000
vt 0.481464 -0.000000
vt 0.481464 0.984905
vt 0.550581 -0.000000
vt 0.550581 0.153592
vt 0.481464 0.153592
vt 0.550581 0.307184
vt 0.481464 0.307184
vt 0.185944 0.987972
vt 0.185944 -0.000000
vt 0.246887 0.012028
vt 0.246887 1.000000
vt 0.246888 0.991646
vt 0.246887 0.005649
vt 0.304285 0.000000
vt 0.304285 0.985997
vt 0.125000 0.012028
vt 0.361683 0.005649
vt 0.361683 0.991646
vt 0.407672 0.102197
vt 0.407672 0.204393
vt 0.361683 0.204393
vt 0.361683 0.102197
vt 0.125000 0.987972
vt 0.185944 0.012028
vt 0.185944 1.000000
vt 0.246887 0.985997
vt 0.246888 0.000000
vt 0.304285 0.005650
vt 0.304285 0.991647
vt 0.246887 -0.000000
vt 0.246887 0.987972
vt 0.304285 0.991646
vt 0.304285 0.005649
vt 0.361683 0.000000
vt 0.361683 0.985997
vt 0.407672 -0.000000
vt 0.368021 0.990385
vt 0.246511 1.000000
vt 0.246511 0.000000
vt 0.368021 0.009615
vt 0.246511 0.990385
vt 0.246511 0.009615
vt 0.468721 -0.000000
vt 0.468721 0.980769
vt 0.418371 0.980769
vt 0.418371 -0.000000
vt 0.418371 1.000000
vt 0.368021 1.000000
vt 0.368021 -0.000000
vt 0.231739 0.990385
vt 0.180944 1.000000
vt 0.180944 -0.000000
vt 0.231739 0.009615
vt 0.282535 0.990385
vt 0.231739 1.000000
vt 0.231739 -0.000000
vt 0.282534 0.009615
vt 0.338479 -0.000000
vt 0.338479 0.980769
vt 0.282535 0.980769
vt 0.282535 -0.000000
vt 0.125000 0.986295
vt 0.200632 0.013705
vt 0.200632 1.000000
vt 0.276264 0.984074
vt 0.276264 0.000000
vt 0.347536 0.000000
vt 0.347536 0.984074
vt 0.276264 0.986295
vt 0.418808 0.000000
vt 0.418808 0.984074
vt 0.125000 0.986318
vt 0.200570 0.013682
vt 0.200570 1.000000
vt 0.276141 0.991694
vt 0.276141 0.006945
vt 0.347247 0.000000
vt 0.347247 0.984749
vt 0.276141 -0.000000
vt 0.276141 0.986318
vt 0.418354 0.006944
vt 0.418354 0.991693
vt 0.276141 0.984749
vt 0.347247 0.006945
vt 0.347247 0.991694
vt 0.347247 0.991693
vt 0.347247 0.006944
vt 0.418354 -0.000000
vt 0.418354 0.984749
vt 0.900561 0.577616
vt 0.849778 0.577616
vt 0.900561 0.581539
vt 0.849778 0.581539
vt 0.900561 0.585299
vt 0.849778 0.585299
vt 0.900561 0.588750
vt 0.849778 0.588750
vt 0.849778 0.591760
vt 0.900561 0.595194
vt 0.849778 0.595194
vt 0.900561 0.598957
vt 0.849778 0.598957
vt 0.900561 0.018082
vt 0.951345 0.018082
vt 0.900561 0.992804
vt 0.849778 0.992804
vt 0.900561 0.996566
vt 0.849778 0.996566
vt 0.900561 1.000000
vt 0.849778 1.000000
vt 0.951345 0.000000
vt 0.951345 0.003010
vt 0.900561 0.003010
vt 0.951345 0.006461
vt 0.900561 0.006461
vt 0.951345 0.010221
vt 0.900561 0.010221
vt 0.951345 0.014145
vt 0.900561 0.014145
vt 0.849778 0.589105
vt 0.849553 0.593064
vt 0.848555 0.596872
vt 0.846824 0.600380
vt 0.844426 0.603456
vt 0.841453 0.605980
vt 0.838020 0.607856
vt 0.834257 0.609011
vt 0.830310 0.609401
vt 0.444357 0.609401
vt 0.440410 0.609011
vt 0.436648 0.607856
vt 0.433214 0.605980
vt 0.430241 0.603456
vt 0.427843 0.600380
vt 0.426112 0.596872
vt 0.425114 0.593064
vt 0.459592 0.000000
vt 0.815075 0.000000
vt 0.157835 0.008297
vt 0.157835 1.000000
vt 0.190671 1.000000
vt 0.157836 1.000000
vt 0.190671 0.000000
vt 0.231668 0.750374
vt 0.190671 0.753855
vt 0.190671 0.003481
vt 0.231668 0.000000
vt 0.272665 0.747665
vt 0.231668 0.744154
vt 0.272665 0.003511
vt 0.231668 0.753855
vt 0.190671 0.750374
vt 0.190671 -0.000000
vt 0.231668 0.003481
vt 0.272665 0.744154
vt 0.231668 0.747665
vt 0.231668 0.003511
vt 0.272665 -0.000000
s 1
usemtl Wood
f 120/1/1 128/2/1 111/3/1 101/4/1
f 102/5/2 110/6/2 4/7/2 3/8/2
f 3/9/3 4/10/3 2/11/3 1/12/3
f 110/13/4 112/14/4 113/15/4 114/16/4 115/17/4 116/18/4 117/19/4 118/20/4 111/21/4 128/22/4 130/23/4 131/24/4 132/25/4 133/26/4 134/27/4 135/28/4 136/29/4 129/30/4 2/31/4 4/32/4
f 5/33/5 6/34/5 8/35/5 7/36/5
f 7/37/1 8/38/1 12/39/1 11/40/1
f 11/41/6 12/33/6 10/36/6 9/42/6
f 9/43/3 10/37/3 6/40/3 5/44/3
f 7/45/7 11/46/7 9/42/7 5/47/7
f 13/48/5 14/35/5 16/49/5 15/50/5
f 15/51/1 16/52/1 20/53/1 19/54/1
f 19/50/6 20/49/6 18/52/6 17/51/6
f 17/54/3 18/53/3 14/55/3 13/56/3
f 15/57/7 19/58/7 17/59/7 13/55/7
f 21/48/5 22/35/5 24/49/5 23/50/5
f 23/51/1 24/52/1 28/53/1 27/54/1
f 27/50/6 28/49/6 26/52/6 25/51/6
f 25/54/3 26/53/3 22/55/3 21/56/3
f 23/58/7 27/60/7 25/61/7 21/59/7
f 29/48/5 30/62/5 32/63/5 31/64/5
f 31/65/8 32/66/8 36/67/8 35/68/8
f 35/64/6 36/63/6 34/69/6 33/70/6
f 33/68/9 34/67/9 30/71/9 29/72/9
f 31/73/7 35/74/7 33/75/7 29/71/7
f 37/48/5 38/62/5 40/63/5 39/64/5
f 39/65/8 40/66/8 44/67/8 43/68/8
f 43/64/6 44/63/6 42/69/6 41/70/6
f 41/68/9 42/67/9 38/71/9 37/72/9
f 39/74/7 43/76/7 41/77/7 37/75/7
f 45/78/10 46/79/10 48/80/10 47/81/10
f 47/82/11 48/83/11 52/84/11 51/85/11
f 51/48/12 52/86/12 50/79/12 49/78/12
f 49/85/13 50/84/13 46/87/13 45/88/13
f 52/89/4 48/90/4 46/91/4 50/92/4
f 53/93/14 54/35/14 56/94/14 55/95/14
f 55/96/11 56/97/11 60/98/11 59/99/11
f 59/95/15 60/94/15 58/100/15 57/101/15
f 57/102/13 58/103/13 54/104/13 53/105/13
f 60/106/4 56/89/4 54/92/4 58/104/4
f 63/107/16 64/108/16 68/109/16 67/110/16
f 65/111/17 66/48/17 62/35/17 61/112/17
f 63/113/7 67/114/7 65/115/7 61/116/7
f 68/116/4 64/117/4 62/118/4 66/119/4
f 71/120/18 72/121/18 76/122/18 75/123/18
f 73/124/19 74/125/19 70/126/19 69/127/19
f 71/128/7 75/129/7 73/130/7 69/131/7
f 76/122/4 72/121/4 70/48/4 74/35/4
f 77/132/5 78/35/5 80/133/5 79/134/5
f 79/135/20 80/136/20 84/137/20 83/138/20
f 83/134/6 84/133/6 82/136/6 81/139/6
f 81/138/21 82/137/21 78/140/21 77/141/21
f 85/142/22 86/35/22 88/143/22 87/144/22
f 87/145/20 88/146/20 92/147/20 91/148/20
f 91/144/23 92/143/23 90/149/23 89/150/23
f 89/148/21 90/147/21 86/151/21 85/152/21
f 93/142/24 94/35/24 96/143/24 95/144/24
f 95/153/20 96/149/20 100/154/20 99/155/20
f 99/144/25 100/143/25 98/149/25 97/150/25
f 97/156/21 98/157/21 94/158/21 93/159/21
f 110/6/26 102/5/26 109/160/26 112/161/26
f 112/161/27 109/160/27 108/162/27 113/163/27
f 113/163/28 108/162/28 107/164/28 114/165/28
f 114/165/29 107/164/29 106/166/29 115/167/29
f 115/167/30 106/166/30 105/11/30 116/168/30
f 116/168/31 105/11/31 104/169/31 117/170/31
f 117/170/32 104/169/32 103/171/32 118/172/32
f 118/172/33 103/171/33 101/4/33 111/3/33
f 1/12/34 2/11/34 129/173/34 119/174/34
f 128/2/35 120/1/35 127/175/35 130/176/35
f 130/176/36 127/175/36 126/177/36 131/178/36
f 131/178/37 126/177/37 125/179/37 132/180/37
f 132/8/38 125/181/38 124/182/38 133/183/38
f 133/183/39 124/182/39 123/184/39 134/185/39
f 134/185/40 123/184/40 122/186/40 135/187/40
f 135/187/41 122/186/41 121/188/41 136/189/41
f 136/189/42 121/188/42 119/174/42 129/173/42
f 119/190/7 121/191/7 122/192/7 123/193/7 124/194/7 125/195/7 126/196/7 127/197/7 120/198/7 101/199/7 103/200/7 104/201/7 105/202/7 106/203/7 107/204/7 108/205/7 109/206/7 102/13/7 3/207/7 1/208/7
f 137/48/5 138/35/5 140/49/5 139/50/5
f 139/51/1 140/52/1 144/53/1 143/54/1
f 143/50/6 144/49/6 142/52/6 141/51/6
f 141/54/3 142/53/3 138/55/3 137/56/3
f 139/58/7 143/60/7 141/61/7 137/59/7
f 144/57/4 140/58/4 138/59/4 142/55/4
f 145/35/43 146/209/43 148/210/43 147/48/43
f 151/211/44 152/212/44 150/209/44 149/213/44
f 147/214/7 151/215/7 149/216/7 145/217/7
f 152/218/4 148/219/4 146/217/4 150/220/4
f 153/35/45 154/209/45 156/210/45 155/48/45
f 159/211/46 160/212/46 158/209/46 157/213/46
f 155/221/7 159/222/7 157/223/7 153/224/7
f 160/225/4 156/226/4 154/227/4 158/228/4
